<?xml version="1.0" encoding="UTF-8" standalone="no"?>
<!-- Created with Inkscape (http://www.inkscape.org/) -->

<svg
   xmlns:dc="http://purl.org/dc/elements/1.1/"
   xmlns:cc="http://creativecommons.org/ns#"
   xmlns:rdf="http://www.w3.org/1999/02/22-rdf-syntax-ns#"
   xmlns:svg="http://www.w3.org/2000/svg"
   xmlns="http://www.w3.org/2000/svg"
   xmlns:sodipodi="http://sodipodi.sourceforge.net/DTD/sodipodi-0.dtd"
   xmlns:inkscape="http://www.inkscape.org/namespaces/inkscape"
   width="322.49432mm"
   height="325.41428mm"
   viewBox="0 0 322.49432 325.41428"
   version="1.1"
   id="svg2164"
   inkscape:version="0.92.4 (unknown)"
   sodipodi:docname="oyd_favicon.svg"
   inkscape:export-filename="/home/m3rcury/Belgeler/oyd/oyd_nc.png"
   inkscape:export-xdpi="96"
   inkscape:export-ydpi="96">
  <defs
     id="defs2158" />
  <sodipodi:namedview
     id="base"
     pagecolor="#ffffff"
     bordercolor="#666666"
     borderopacity="1.0"
     inkscape:pageopacity="0.0"
     inkscape:pageshadow="2"
     inkscape:zoom="2.8000001"
     inkscape:cx="-13.624908"
     inkscape:cy="1050.9225"
     inkscape:document-units="mm"
     inkscape:current-layer="layer1"
     showgrid="false"
     fit-margin-top="0"
     fit-margin-left="0"
     fit-margin-right="0"
     fit-margin-bottom="0"
     inkscape:window-width="1920"
     inkscape:window-height="1031"
     inkscape:window-x="0"
     inkscape:window-y="25"
     inkscape:window-maximized="1" />
  <metadata
     id="metadata2161">
    <rdf:RDF>
      <cc:Work
         rdf:about="">
        <dc:format>image/svg+xml</dc:format>
        <dc:type
           rdf:resource="http://purl.org/dc/dcmitype/StillImage" />
        <dc:title></dc:title>
      </cc:Work>
    </rdf:RDF>
  </metadata>
  <g
     inkscape:label="Layer 1"
     inkscape:groupmode="layer"
     id="layer1"
     transform="translate(236.08644,72.63265)">
    <g
       id="layer1-3"
       transform="matrix(2.5283948,0,0,2.5283948,-342.97618,-120.24904)"
       style="fill:#4c2447;fill-opacity:1">
      <g
         id="g788"
         transform="matrix(2.5139572,0,0,2.5139572,-180.91497,-275.77257)"
         style="fill:#4c2447;fill-opacity:1">
        <g
           style="fill:#4c2447;fill-opacity:1"
           transform="matrix(0.35277777,0,0,-0.35277777,117.61592,137.02431)"
           id="g281">
          <path
             id="path283"
             style="fill:#4c2447;fill-opacity:1;fill-rule:nonzero;stroke:none"
             d="m 0,0 h 1.633 c 0,3.981 5.414,7.684 10.944,7.684 h 24.678 c 8.188,0 14.435,2.653 18.565,7.887 9.432,11.947 5.688,34.015 4.671,39.061 -2.408,0.487 -8.691,1.597 -15.903,1.597 -7.894,0 -16.901,-1.33 -23.153,-6.262 -5.237,-4.131 -7.893,-10.38 -7.893,-18.571 v -6 h 14.286 v 6 c 0,3.566 2.07,6.639 5.404,8.021 1.211,0.501 2.478,0.745 3.732,0.745 2.507,0 4.959,-0.976 6.802,-2.819 2.681,-2.681 3.516,-6.582 2.126,-9.937 -1.389,-3.354 -4.7,-5.436 -8.637,-5.437 0,0 -9.176,0.031 -18.047,0.031 C 14.819,22 10.504,21.992 7.412,21.97 3.95,21.944 -1.852,20.809 -6.158,16.501 -6.349,16.312 -6.526,16.117 -6.707,15.924 -3.431,11.694 -1.76,6.705 -1.625,0.78 -1.076,0.545 -0.535,0.282 0,0"
             inkscape:connector-curvature="0" />
        </g>
        <g
           style="fill:#4c2447;fill-opacity:1"
           transform="matrix(0.35277777,0,0,-0.35277777,113.3795,137.54315)"
           id="g285">
          <path
             id="path287"
             style="fill:#4c2447;fill-opacity:1;fill-rule:nonzero;stroke:none"
             d="m 0,0 h -0.004 c -5.693,0 -10.278,-3.083 -12.582,-5.354 -6.219,-6.128 -19.723,-19.723 -19.723,-19.723 -1.782,-1.782 -4.015,-2.724 -6.252,-2.724 -1.03,0 -2.06,0.199 -3.048,0.609 -3.137,1.298 -5.163,4.428 -5.162,7.972 -10e-4,3.654 2.194,6.925 5.59,8.332 1.053,0.436 2.139,0.649 3.205,0.649 2.089,0 4.107,-0.818 5.667,-2.378 l 3.965,-3.965 9.442,9.441 -3.965,3.965 C -27.643,1.6 -32.785,4.01 -38.18,4.01 c -0.721,0 -1.446,-0.043 -2.176,-0.129 -14.146,-1.67 -26.236,-18.72 -28.895,-22.728 2.662,-4.007 14.772,-21.066 28.9,-22.729 0.728,-0.085 1.453,-0.128 2.171,-0.128 5.396,0 10.536,2.41 15.312,7.185 l 16.308,16.31 c 2.294,2.293 5.521,3.593 8.256,3.593 1.624,0 3.075,-0.458 4.056,-1.439 0,0 5.118,5.119 9.44,9.441 C 11.089,-2.511 6.19,0 0,0"
             inkscape:connector-curvature="0" />
        </g>
        <g
           style="fill:#4c2447;fill-opacity:1"
           transform="matrix(0.35277777,0,0,-0.35277777,126.37784,135.74118)"
           id="g289">
          <path
             id="path291"
             style="fill:#4c2447;fill-opacity:1;fill-rule:nonzero;stroke:none"
             d="m 0,0 c -4.407,-0.677 -8.628,-3.005 -12.595,-6.973 l -20.711,-20.71 9.441,-9.44 20.711,20.71 c 2.602,2.603 6.166,3.413 9.301,2.116 3.136,-1.3 5.162,-4.429 5.163,-7.973 0,-3.654 -2.195,-6.924 -5.593,-8.331 -3.114,-1.291 -6.515,-0.628 -8.871,1.728 l -3.965,3.966 -9.441,-9.441 3.965,-3.965 c 5.413,-5.413 11.298,-7.789 17.49,-7.058 14.143,1.669 26.234,18.722 28.894,22.728 C 31.161,-18.69 19.338,-2.043 5.454,0 5.266,0.028 5.078,0.063 4.889,0.086 3.235,0.281 1.605,0.247 0,0"
             inkscape:connector-curvature="0" />
        </g>
        <g
           style="fill:#4c2447;fill-opacity:1"
           transform="matrix(0.35277777,0,0,-0.35277777,119.14487,152.01999)"
           id="g293">
          <path
             id="path295"
             style="fill:#4c2447;fill-opacity:1;fill-rule:nonzero;stroke:none"
             d="m 0,0 -20.711,20.71 -9.441,-9.441 20.71,-20.71 c 0.163,-0.163 0.318,-0.329 0.466,-0.499 0.298,-0.34 0.567,-0.693 0.807,-1.057 0.24,-0.365 0.451,-0.74 0.633,-1.123 0.091,-0.192 0.174,-0.386 0.25,-0.581 0.151,-0.391 0.273,-0.789 0.365,-1.191 0.045,-0.201 0.083,-0.403 0.113,-0.606 0.062,-0.406 0.092,-0.814 0.09,-1.222 -0.001,-0.408 -0.034,-0.817 -0.098,-1.223 -0.098,-0.608 -0.267,-1.211 -0.51,-1.799 -0.081,-0.196 -0.17,-0.387 -0.265,-0.574 -0.475,-0.936 -1.122,-1.758 -1.894,-2.438 -0.31,-0.271 -0.639,-0.521 -0.986,-0.746 -0.52,-0.336 -1.081,-0.619 -1.671,-0.839 -0.982,-0.368 -2.049,-0.566 -3.157,-0.566 -2.969,0.001 -5.684,1.449 -7.353,3.814 -0.386,0.546 -0.715,1.141 -0.979,1.778 -0.483,1.167 -0.692,2.374 -0.641,3.551 l 0.003,0.048 c 0.048,0.966 0.271,1.912 0.663,2.798 0.079,0.18 0.166,0.358 0.258,0.533 0.373,0.698 0.857,1.353 1.447,1.942 l 3.965,3.965 -9.44,9.44 -3.966,-3.965 c -5.414,-5.413 -7.788,-11.297 -7.058,-17.489 0.104,-0.884 0.268,-1.76 0.486,-2.626 0.218,-0.866 0.488,-1.722 0.806,-2.567 0.316,-0.845 0.679,-1.678 1.082,-2.498 0.201,-0.41 0.412,-0.816 0.631,-1.219 0.305,-0.558 0.632,-1.106 0.969,-1.65 0.393,-0.634 0.8,-1.261 1.23,-1.873 0.265,-0.38 0.538,-0.755 0.815,-1.125 0.556,-0.742 1.133,-1.465 1.726,-2.169 0.592,-0.703 1.199,-1.387 1.814,-2.05 0.615,-0.662 1.238,-1.303 1.863,-1.921 0.937,-0.926 1.875,-1.8 2.793,-2.615 0.448,-0.396 0.886,-0.774 1.32,-1.141 2.243,-1.903 4.284,-3.422 5.746,-4.45 0.581,-0.409 1.071,-0.741 1.447,-0.991 0.375,0.25 0.865,0.583 1.447,0.992 1.163,0.819 2.692,1.946 4.398,3.332 0.284,0.23 0.573,0.469 0.867,0.714 1.173,0.98 2.411,2.072 3.659,3.26 2.496,2.377 5.03,5.141 7.156,8.176 0.533,0.759 1.039,1.535 1.512,2.326 1.897,3.163 3.275,6.569 3.69,10.102 0.591,5.028 -0.865,9.854 -4.334,14.39 C 1.922,-2.046 1.015,-1.015 0,0"
             inkscape:connector-curvature="0" />
        </g>
        <g
           style="fill:#4c2447;fill-opacity:1"
           transform="matrix(0.35277777,0,0,-0.35277777,112.85414,131.203)"
           id="g297">
          <path
             id="path299"
             style="fill:#4c2447;fill-opacity:1;fill-rule:nonzero;stroke:none"
             d="m 0,0 c -4.307,4.307 -10.108,5.443 -13.57,5.468 -3.092,0.023 -7.407,0.031 -11.796,0.031 -8.871,0 -18.047,-0.032 -18.047,-0.032 -3.938,0.001 -7.248,2.084 -8.637,5.437 -1.39,3.356 -0.555,7.257 2.126,9.937 1.843,1.844 4.295,2.82 6.802,2.82 1.253,0 2.52,-0.244 3.731,-0.746 3.334,-1.381 5.405,-4.454 5.405,-8.02 v -6 H -19.7 v 6 c 0,8.191 -2.656,14.44 -7.893,18.57 -6.254,4.933 -15.259,6.263 -23.153,6.263 -7.211,0 -13.495,-1.11 -15.903,-1.597 -1.017,-5.046 -4.761,-27.114 4.67,-39.061 4.13,-5.235 10.377,-7.887 18.566,-7.887 h 24.678 c 5.151,0 10.196,-3.213 10.864,-6.871 2.231,1 4.931,1.763 8.012,1.763 2.202,0 4.296,-0.283 6.297,-0.841 C 6.122,-9.246 4.245,-4.243 0,0"
             inkscape:connector-curvature="0" />
        </g>
      </g>
    </g>
  </g>
</svg>
